<svg
    xmlns="http://www.w3.org/2000/svg"
    xmlns:xlink="http://www.w3.org/1999/xlink" width="267.02" height="267.02" viewBox="0 0 267.02 267.02">
    <defs>
        <style>.cls-2{fill:#347998;}.cls-3{clip-path:url(#clip-path);}.cls-4{fill:#102741;opacity:0.3;}.cls-5{fill:#d7e8f7;}</style>
        <clipPath id="clip-path">
            <circle cx="133.51" cy="133.51" r="133.51"/>
        </clipPath>
    </defs>
    <title>icon-ortho</title>
    <g>
        <circle class="cls-2" cx="133.51" cy="133.51" r="133.51"/>
        <g class="cls-3">
            <path class="cls-4" d="M366.11,220.06c-2-8-176.67-162.67-176.67-162.67l-20.66,26c-17.5-15.68-13.34,9.33-13.34,9.33L98.78,116.39c0-.33,16.33,16,16.33,16l.67.67c-2.42-2.17-6.34,24.33-6.34,24.33l-32.33,52,127,115.33s24.5-51.27,39-61.17l45.29,41.09s2.93-1.29,7.39-3.37l5.36,4.87s15.59-7.46,15.23-15.1c12.48-6.66,24.23-14.06,23.27-17.9-.33-1.31-5.15-6.46-13-14.18C342.21,251.49,367.49,225.56,366.11,220.06Z"/>
            <path class="cls-5" d="M120.07,92.39c27,2,38.48-14.07,49.05-31.11,4-6.47,8-10.84,16-6.38C195.43,60.7,196.43,65.63,188,74c-14.27,14.11-21,31.18-21.44,51-.19,8.79-2,17-8.49,23.4-5.31,5.25-11.72,6.44-18.49,3.92s-6.06-8.37-5.15-14.11c1.56-9.77-3.48-14.6-12.57-16-3.66-.58-7.38-.78-11.07-1.2-7-.8-13.87-2.42-14-11.18-.11-8.18,3.79-14.49,12.25-16.4C113.65,92.33,118.57,92.51,120.07,92.39Z"/>
            <path class="cls-5" d="M91.26,210.08c-3.36,0-5.24-.17-7.08,0-8,.9-8.86-1.88-5.24-8.59,9.26-17.13,14-34.84,8.33-54.65-2-7-2.17-16.91,8.13-18.8,13.91-2.56,24.66,4.68,25.12,15.73.37,9.17,4,15.4,12.51,19.23,7.95,3.57,8,8.28.32,12.41-12.57,6.77-22.21,15.91-27,29.8C103.28,214.07,95.17,208,91.26,210.08Z"/>
        </g>
    </g>
</svg>